<?xml version="1.0" encoding="UTF-8" standalone="no"?>
<!-- Created with Inkscape (http://www.inkscape.org/) -->

<svg
   xmlns:dc="http://purl.org/dc/elements/1.1/"
   xmlns:cc="http://creativecommons.org/ns#"
   xmlns:rdf="http://www.w3.org/1999/02/22-rdf-syntax-ns#"
   xmlns:svg="http://www.w3.org/2000/svg"
   xmlns="http://www.w3.org/2000/svg"
   xmlns:sodipodi="http://sodipodi.sourceforge.net/DTD/sodipodi-0.dtd"
   xmlns:inkscape="http://www.inkscape.org/namespaces/inkscape"
   version="1.1"
   id="svg4485"
   xml:space="preserve"
   width="4444.4399"
   height="824.20667"
   viewBox="0 0 4444.4399 824.20667"
   sodipodi:docname="SClogovector.svg"
   inkscape:version="0.92.1 r15371"><metadata
     id="metadata4491"><rdf:RDF><cc:Work
         rdf:about=""><dc:format>image/svg+xml</dc:format><dc:type
           rdf:resource="http://purl.org/dc/dcmitype/StillImage" /><dc:title></dc:title></cc:Work></rdf:RDF></metadata><defs
     id="defs4489"><clipPath
       clipPathUnits="userSpaceOnUse"
       id="clipPath4501"><path
         d="M 0,618.155 H 3333.333 V 0 H 0 Z"
         id="path4499"
         inkscape:connector-curvature="0" /></clipPath></defs><sodipodi:namedview
     pagecolor="#ffffff"
     bordercolor="#666666"
     borderopacity="1"
     objecttolerance="10"
     gridtolerance="10"
     guidetolerance="10"
     inkscape:pageopacity="0"
     inkscape:pageshadow="2"
     inkscape:window-width="1920"
     inkscape:window-height="986"
     id="namedview4487"
     showgrid="false"
     inkscape:zoom="0.31320032"
     inkscape:cx="2222.22"
     inkscape:cy="412.10333"
     inkscape:window-x="-11"
     inkscape:window-y="-11"
     inkscape:window-maximized="1"
     inkscape:current-layer="g4493" /><g
     id="g4493"
     inkscape:groupmode="layer"
     inkscape:label="LogoBusiness_SOURCE-VECTOR"
     transform="matrix(1.3333333,0,0,-1.3333333,0,824.20667)"><g
       id="g4495"><g
         id="g4497"
         clip-path="url(#clipPath4501)"><g
           id="g4503"
           transform="translate(690.4267,140.5774)"><path
             d="m 0,0 c -18.662,0 -35.536,3.834 -50.616,11.491 -15.079,7.656 -27.599,18.031 -37.547,31.123 l 23.321,19.592 c 6.218,-9.953 14.922,-17.885 26.12,-23.794 11.199,-5.909 23.327,-8.86 36.384,-8.86 14.928,0 27.132,3.179 36.618,9.544 9.486,6.365 14.232,14.98 14.232,25.851 0,7.143 -1.56,13.199 -4.67,18.166 -3.115,4.968 -7.394,9.311 -12.841,13.04 -5.447,3.729 -11.672,7.143 -18.674,10.246 -7.002,3.104 -14.396,6.207 -22.175,9.317 -8.095,3.413 -15.957,6.984 -23.578,10.714 -7.628,3.722 -14.478,8.071 -20.545,13.039 -6.067,4.968 -10.895,10.708 -14.471,17.23 -3.578,6.524 -5.366,14.444 -5.366,23.76 0,19.247 7.066,34.694 21.211,46.338 14.139,11.642 32.865,17.47 56.174,17.47 15.536,0 30.218,-3.601 44.047,-10.789 13.829,-7.196 24.478,-16.717 31.936,-28.559 L 56.198,185.327 c -5.921,9.013 -13.788,16.167 -23.595,21.457 -9.814,5.283 -20.013,7.931 -30.604,7.931 -13.081,0 -23.437,-2.875 -31.071,-8.615 -7.633,-5.746 -11.444,-13.274 -11.444,-22.59 0,-9.937 4.044,-17.704 12.14,-23.292 8.089,-5.587 18.674,-11.175 31.749,-16.763 9.959,-4.349 19.685,-8.621 29.177,-12.811 9.492,-4.191 17.891,-9.16 25.209,-14.905 7.311,-5.745 13.145,-12.578 17.505,-20.492 4.36,-7.92 6.54,-17.932 6.54,-30.042 0,-19.562 -7.493,-35.32 -22.479,-47.273 C 44.339,5.974 24.56,0 0,0"
             style="fill:#1a1a1a;fill-opacity:1;fill-rule:nonzero;stroke:none"
             id="path4505"
             inkscape:connector-curvature="0" /></g><g
           id="g4507"
           transform="translate(903.7499,354.9182)"><path
             d="m 0,0 c -22.356,0 -40.832,-6.446 -55.42,-19.328 -14.595,-12.888 -23.444,-30.51 -26.548,-52.866 H 81.5 C 78.706,-52.322 71.254,-36.179 59.144,-23.753 44.859,-7.919 25.145,0 0,0 m -83.09,-102.12 c 0.929,-13.332 4.033,-25.109 9.317,-35.338 5.283,-10.229 11.964,-18.832 20.042,-25.805 8.077,-6.972 17.16,-12.239 27.26,-15.804 10.099,-3.566 20.585,-5.348 31.462,-5.348 6.833,0 13.975,0.695 21.433,2.098 7.458,1.397 14.834,3.571 22.14,6.529 7.301,2.957 14.133,6.686 20.504,11.198 6.371,4.507 11.883,9.714 16.547,15.623 l 22.859,-19.592 c -5.915,-7.773 -12.911,-14.542 -20.989,-20.304 -8.083,-5.763 -16.71,-10.515 -25.875,-14.255 -9.165,-3.741 -18.487,-6.547 -27.962,-8.417 -9.48,-1.87 -18.72,-2.806 -27.733,-2.806 -15.852,0 -31.153,2.724 -45.911,8.154 -14.758,5.435 -27.81,13.285 -39.149,23.542 -11.345,10.252 -20.509,22.918 -27.5,37.992 -6.99,15.074 -10.485,32.246 -10.485,51.51 0,17.716 2.951,34.035 8.855,48.951 5.903,14.916 14.132,27.885 24.7,38.921 10.561,11.035 22.911,19.656 37.05,25.875 14.133,6.212 29.592,9.322 46.373,9.322 16.465,0 31.457,-2.724 44.97,-8.165 13.513,-5.448 25.238,-13.146 35.186,-23.099 10.824,-10.889 19.329,-23.719 25.512,-38.494 6.184,-14.775 9.276,-30.721 9.276,-47.822 0,-3.425 -0.064,-6.301 -0.187,-8.633 -0.128,-2.338 -0.315,-4.278 -0.561,-5.833 z"
             style="fill:#1a1a1a;fill-opacity:1;fill-rule:nonzero;stroke:none"
             id="path4509"
             inkscape:connector-curvature="0" /></g><g
           id="g4511"
           transform="translate(1153.0966,348.5774)"><path
             d="m 0,0 c -3.425,2.483 -7.154,4.038 -11.199,4.658 -4.044,0.619 -8.393,0.935 -13.057,0.935 -8.393,0 -16.015,-1.87 -22.853,-5.599 -6.845,-3.729 -12.678,-9.013 -17.494,-15.851 -4.822,-6.839 -8.557,-14.77 -11.198,-23.783 -2.642,-9.018 -3.963,-18.966 -3.963,-29.843 v -132.906 h -32.544 V 31.029 h 31.047 l 0.1,-31.585 c 6.219,11.187 14.536,20.118 24.952,26.799 10.415,6.681 22.776,10.024 37.084,10.024 11.193,0 21.609,-2.099 31.253,-6.284 z"
             style="fill:#1a1a1a;fill-opacity:1;fill-rule:nonzero;stroke:none"
             id="path4513"
             inkscape:connector-curvature="0" /></g><g
           id="g4515"
           transform="translate(1449.4198,408.1418)"><path
             d="m 0,0 c -6.191,0 -11.482,2.19 -15.865,6.578 -4.388,4.382 -6.578,9.674 -6.578,15.865 0,6.192 2.19,11.479 6.578,15.867 4.383,4.381 9.674,6.578 15.865,6.578 6.191,0 11.479,-2.197 15.866,-6.578 4.382,-4.388 6.578,-9.675 6.578,-15.867 0,-6.191 -2.196,-11.483 -6.578,-15.865 C 11.479,2.19 6.191,0 0,0"
             style="fill:#1a1a1a;fill-opacity:1;fill-rule:nonzero;stroke:none"
             id="path4517"
             inkscape:connector-curvature="0" /></g><path
           d="m 1433.148,379.607 h 32.544 V 146.189 h -32.544 z"
           style="fill:#1a1a1a;fill-opacity:1;fill-rule:nonzero;stroke:none"
           id="path4519"
           inkscape:connector-curvature="0" /><g
           id="g4521"
           transform="translate(1612.8124,140.5774)"><path
             d="m 0,0 c -18.037,0 -34.602,3.109 -49.681,9.322 -15.08,6.214 -28.12,14.835 -39.119,25.869 -11,11.036 -19.581,24.011 -25.741,38.927 -6.166,14.916 -9.246,30.919 -9.246,48.016 0,17.399 3.08,33.478 9.246,48.243 6.16,14.764 14.741,27.657 25.741,38.692 10.999,11.035 24.039,19.657 39.119,25.875 15.079,6.213 31.644,9.323 49.681,9.323 19.592,0 37.623,-3.589 54.105,-10.755 16.483,-7.171 30.007,-17.294 40.586,-30.364 L 71.833,184.019 c -9.954,9.947 -20.919,17.493 -32.889,22.625 -11.97,5.131 -24.952,7.697 -38.944,7.697 -13.373,0 -25.583,-2.332 -36.618,-6.985 -11.04,-4.658 -20.527,-11.098 -28.452,-19.328 -7.932,-8.229 -14.151,-18.008 -18.662,-29.341 -4.513,-11.333 -6.763,-23.671 -6.763,-37.021 0,-13.04 2.098,-25.15 6.295,-36.326 4.196,-11.175 10.263,-20.877 18.194,-29.107 7.926,-8.229 17.646,-14.67 29.154,-19.323 11.503,-4.658 24.409,-6.984 38.716,-6.984 12.439,0 24.718,2.174 36.846,6.528 12.128,4.355 23.169,12.286 33.123,23.794 L 94.691,41.118 C 84.112,28.044 70.588,17.92 54.105,10.755 37.623,3.589 19.592,0 0,0"
             style="fill:#1a1a1a;fill-opacity:1;fill-rule:nonzero;stroke:none"
             id="path4523"
             inkscape:connector-curvature="0" /></g><g
           id="g4525"
           transform="translate(1831.0214,354.9182)"><path
             d="m 0,0 c -22.356,0 -40.832,-6.446 -55.42,-19.328 -14.595,-12.888 -23.444,-30.51 -26.548,-52.866 H 81.5 C 78.706,-52.322 71.254,-36.179 59.144,-23.753 44.859,-7.919 25.145,0 0,0 m -83.09,-102.12 c 0.93,-13.332 4.033,-25.109 9.317,-35.338 5.284,-10.229 11.964,-18.832 20.042,-25.805 8.078,-6.972 17.161,-12.239 27.26,-15.804 10.1,-3.566 20.585,-5.348 31.462,-5.348 6.833,0 13.976,0.695 21.434,2.098 7.458,1.397 14.834,3.571 22.139,6.529 7.301,2.957 14.133,6.686 20.504,11.198 6.371,4.507 11.883,9.714 16.547,15.623 l 22.86,-19.592 c -5.915,-7.773 -12.912,-14.542 -20.99,-20.304 -8.083,-5.763 -16.71,-10.515 -25.875,-14.255 -9.165,-3.741 -18.487,-6.547 -27.962,-8.417 -9.479,-1.87 -18.72,-2.806 -27.733,-2.806 -15.851,0 -31.152,2.724 -45.911,8.154 -14.758,5.435 -27.81,13.285 -39.149,23.542 -11.344,10.252 -20.509,22.918 -27.5,37.992 -6.99,15.074 -10.485,32.246 -10.485,51.51 0,17.716 2.951,34.035 8.855,48.951 5.903,14.916 14.132,27.885 24.7,38.921 10.561,11.035 22.912,19.656 37.051,25.875 14.132,6.212 29.591,9.322 46.373,9.322 16.464,0 31.456,-2.724 44.969,-8.165 13.513,-5.448 25.239,-13.146 35.186,-23.099 10.825,-10.889 19.329,-23.719 25.513,-38.494 6.183,-14.775 9.275,-30.721 9.275,-47.822 0,-3.425 -0.063,-6.301 -0.187,-8.633 -0.128,-2.338 -0.315,-4.278 -0.561,-5.833 z"
             style="fill:#1a1a1a;fill-opacity:1;fill-rule:nonzero;stroke:none"
             id="path4527"
             inkscape:connector-curvature="0" /></g><g
           id="g4529"
           transform="translate(2094.6416,140.5774)"><path
             d="m 0,0 c -18.037,0 -34.835,3.033 -50.389,9.089 -15.558,6.056 -29.013,14.524 -40.376,25.401 -11.362,10.877 -20.234,23.778 -26.617,38.693 -6.382,14.916 -9.573,31.235 -9.573,48.951 0,17.709 3.191,34.028 9.573,48.944 6.383,14.916 15.255,27.816 26.617,38.692 11.363,10.877 24.818,19.347 40.376,25.408 15.554,6.055 32.352,9.089 50.389,9.089 21.456,0 40.271,-3.899 56.443,-11.69 16.167,-7.797 29.54,-17.616 40.114,-29.458 l -45.713,-42.03 c -5.909,6.839 -12.906,12.128 -20.989,15.857 -8.089,3.729 -17.108,5.599 -27.055,5.599 -17.418,0 -31.492,-5.657 -42.218,-16.961 -10.731,-11.31 -16.091,-25.793 -16.091,-43.45 0,-17.663 5.36,-32.147 16.091,-43.451 10.726,-11.31 24.952,-16.961 42.68,-16.961 9.328,0 18.118,1.788 26.359,5.365 8.241,3.577 15.314,8.936 21.223,16.091 L 96.557,41.147 C 85.983,29.3 72.61,19.48 56.443,11.689 40.271,3.898 21.456,0 0,0"
             style="fill:#59d771;fill-opacity:1;fill-rule:nonzero;stroke:none"
             id="path4531"
             inkscape:connector-curvature="0" /></g><g
           id="g4533"
           transform="translate(2313.5635,186.2141)"><path
             d="m 0,0 c 7.148,0 13.965,0.562 19.819,3.255 30.09,13.838 30.09,49.821 30.09,49.821 -5.29,2.479 -12.134,5.038 -20.527,7.681 -8.394,2.636 -17.412,3.957 -27.05,3.957 -13.063,0 -23.484,-3.028 -31.258,-9.083 -7.773,-6.056 -11.661,-14.045 -11.661,-23.97 0,-9.626 3.73,-17.312 11.193,-23.052 C -21.93,2.869 -12.134,0 0,0 m 5.266,198.63 c 14.612,0 28.611,-1.788 41.989,-5.36 13.373,-3.577 25.121,-9.247 35.232,-17.014 10.113,-7.774 18.125,-17.873 24.04,-30.3 5.915,-12.432 8.873,-27.657 8.873,-45.677 V -40.025 H 57.045 v 21.865 c -9.959,-8.697 -21.164,-15.448 -33.613,-20.258 -12.45,-4.811 -25.828,-7.219 -40.142,-7.219 -13.695,0 -26.221,1.789 -37.577,5.36 -11.362,3.571 -21.088,8.621 -29.177,15.15 -8.09,6.523 -14.314,14.296 -18.669,23.309 -4.359,9.012 -6.534,19.113 -6.534,30.299 0,11.807 2.408,22.608 7.236,32.398 4.822,9.79 11.59,18.183 20.305,25.174 8.709,6.99 19.294,12.356 31.743,16.085 12.449,3.729 26.138,5.593 41.077,5.593 9.96,0 19.686,-1.016 29.178,-3.039 9.491,-2.028 18.75,-4.757 27.774,-8.182 v 10.713 c 0,11.8 -5.131,21.193 -15.395,28.183 -10.264,6.986 -23.017,10.481 -38.248,10.481 -9.954,0 -20.06,-1.713 -30.323,-5.132 -10.264,-3.42 -19.124,-8.084 -26.588,-13.993 l -28.453,41.995 c 6.529,4.98 13.758,9.334 21.69,13.069 7.926,3.729 16.091,6.844 24.49,9.334 8.393,2.49 16.869,4.355 25.419,5.6 8.551,1.245 16.559,1.87 24.028,1.87"
             style="fill:#59d771;fill-opacity:1;fill-rule:nonzero;stroke:none"
             id="path4535"
             inkscape:connector-curvature="0" /></g><g
           id="g4537"
           transform="translate(2576.7764,202.2991)"><path
             d="m 0,0 c 15.857,0 29.23,5.342 40.113,16.032 10.883,10.685 16.325,25.478 16.325,44.38 0,18.896 -5.442,33.69 -16.325,44.379 C 29.23,115.476 15.857,120.823 0,120.823 c -8.398,0 -16.097,-1.549 -23.093,-4.646 -6.996,-3.098 -12.981,-7.359 -17.955,-12.782 -4.979,-5.424 -8.866,-11.848 -11.66,-19.283 -2.8,-7.434 -4.197,-15.337 -4.197,-23.7 0,-8.37 1.397,-16.266 4.197,-23.701 2.794,-7.435 6.681,-13.864 11.66,-19.288 4.974,-5.424 10.959,-9.679 17.955,-12.777 C -16.097,1.549 -8.398,0 0,0 M 124.893,275.278 V -56.11 H 63.948 v 26.184 c -9.34,-9.667 -20.228,-17.383 -32.673,-23.145 -12.449,-5.763 -26.605,-8.651 -42.473,-8.651 -17.114,0 -32.83,3.186 -47.145,9.557 -14.313,6.371 -26.681,14.992 -37.102,25.869 -10.428,10.877 -18.517,23.776 -24.274,38.692 -5.758,14.916 -8.633,30.919 -8.633,48.016 0,17.09 2.875,33.099 8.633,48.015 5.751,14.916 13.84,27.809 24.262,38.686 10.421,10.878 22.789,19.505 37.097,25.875 14.308,6.371 30.019,9.557 47.132,9.557 12.128,0 23.561,-1.719 34.291,-5.144 10.732,-3.43 20.61,-8.264 29.634,-14.495 V 271.07 Z"
             style="fill:#59d771;fill-opacity:1;fill-rule:nonzero;stroke:none"
             id="path4539"
             inkscape:connector-curvature="0" /></g><g
           id="g4541"
           transform="translate(2847.4219,202.2991)"><path
             d="m 0,0 c 15.857,0 29.23,5.342 40.113,16.032 10.883,10.685 16.325,25.478 16.325,44.38 0,18.896 -5.442,33.69 -16.325,44.379 C 29.23,115.476 15.857,120.823 0,120.823 c -8.398,0 -16.097,-1.549 -23.093,-4.646 -6.996,-3.098 -12.981,-7.359 -17.955,-12.782 -4.979,-5.424 -8.866,-11.848 -11.66,-19.283 -2.8,-7.434 -4.197,-15.337 -4.197,-23.7 0,-8.37 1.397,-16.266 4.197,-23.701 2.794,-7.435 6.681,-13.864 11.66,-19.288 4.974,-5.424 10.959,-9.679 17.955,-12.777 C -16.097,1.549 -8.398,0 0,0 M 124.893,275.278 V -56.11 H 63.948 v 26.184 c -9.34,-9.667 -20.228,-17.383 -32.672,-23.145 -12.45,-5.763 -26.606,-8.651 -42.474,-8.651 -17.114,0 -32.83,3.186 -47.145,9.557 -14.313,6.371 -26.681,14.992 -37.102,25.869 -10.428,10.877 -18.517,23.776 -24.274,38.692 -5.758,14.916 -8.633,30.919 -8.633,48.016 0,17.09 2.875,33.099 8.633,48.015 5.751,14.916 13.84,27.809 24.262,38.686 10.421,10.878 22.789,19.505 37.097,25.875 14.308,6.371 30.019,9.557 47.132,9.557 12.128,0 23.561,-1.719 34.291,-5.144 10.732,-3.43 20.61,-8.264 29.634,-14.495 V 271.07 Z"
             style="fill:#59d771;fill-opacity:1;fill-rule:nonzero;stroke:none"
             id="path4543"
             inkscape:connector-curvature="0" /></g><g
           id="g4545"
           transform="translate(3032.5352,399.4973)"><path
             d="m 0,0 c -10.609,0 -19.559,3.711 -26.851,11.138 -7.293,7.422 -10.938,16.305 -10.938,26.65 0,10.605 3.645,19.623 10.938,27.05 7.292,7.423 16.242,11.139 26.851,11.139 10.604,0 19.622,-3.716 27.05,-11.139 C 34.472,57.411 38.188,48.393 38.188,37.788 38.188,27.443 34.472,18.56 27.05,11.138 19.622,3.711 10.604,0 0,0"
             style="fill:#59d771;fill-opacity:1;fill-rule:nonzero;stroke:none"
             id="path4547"
             inkscape:connector-curvature="0" /></g><path
           d="m 2996.449,379.607 h 72.195 V 146.189 h -72.195 z"
           style="fill:#59d771;fill-opacity:1;fill-rule:nonzero;stroke:none"
           id="path4549"
           inkscape:connector-curvature="0" /><g
           id="g4551"
           transform="translate(3211.4922,333.9709)"><path
             d="m 0,0 c -14.617,0 -26.512,-4.186 -35.683,-12.549 -9.175,-8.37 -14.693,-19.521 -16.558,-33.462 H 51.779 C 49.909,-33 45.093,-22.619 37.319,-14.869 27.991,-4.957 15.548,0 0,0 m -52.615,-87.158 c 1.554,-17.71 8.241,-30.989 20.059,-39.838 11.819,-8.856 25.811,-13.279 41.984,-13.279 11.812,0 23.472,2.173 34.981,6.528 11.503,4.354 21.299,10.731 29.388,19.13 l 37.319,-36.378 c -6.535,-7.768 -13.999,-14.291 -22.391,-19.568 -8.4,-5.285 -17.184,-9.633 -26.361,-13.046 -9.176,-3.419 -18.58,-5.898 -28.218,-7.458 -9.644,-1.549 -18.972,-2.327 -27.985,-2.327 -18.353,0 -35.379,2.958 -51.078,8.856 -15.705,5.903 -29.306,14.139 -40.809,24.706 -11.503,10.567 -20.521,23.385 -27.049,38.458 -6.529,15.068 -9.79,31.621 -9.79,49.646 0,17.71 3.027,34.029 9.094,48.945 6.061,14.916 14.612,27.891 25.647,38.927 11.035,11.034 24.175,19.58 39.412,25.64 15.231,6.056 32.023,9.089 50.376,9.089 17.412,0 33.35,-2.876 47.81,-8.627 14.46,-5.751 27.132,-13.759 38.015,-24.017 10.884,-10.882 19.282,-23.624 25.191,-38.236 5.904,-14.612 8.861,-30.779 8.861,-48.5 0,-6.839 -0.467,-13.057 -1.397,-18.651 z"
             style="fill:#59d771;fill-opacity:1;fill-rule:nonzero;stroke:none"
             id="path4553"
             inkscape:connector-curvature="0" /></g><g
           id="g4555"
           transform="translate(1413.9989,379.6067)"><path
             d="m 0,0 -107.655,-233.418 h -14.928 L -228.561,0 h 33.21 L -115.587,-180.663 -32.556,0 Z"
             style="fill:#1a1a1a;fill-opacity:1;fill-rule:nonzero;stroke:none"
             id="path4557"
             inkscape:connector-curvature="0" /></g><g
           id="g4559"
           transform="translate(100.56,204.1184)"><path
             d="M 0,0 V 243.228 L 123.288,172.446 -100.56,375.444 V -58.384 Z"
             style="fill:#1a1a1a;fill-opacity:1;fill-rule:nonzero;stroke:none"
             id="path4561"
             inkscape:connector-curvature="0" /></g><g
           id="g4563"
           transform="translate(-1e-4,2e-4)"><path
             d="M 0,0 421.662,243.327 0,109.031 V 0.25 l 0.217,0.717 z"
             style="fill:#1a1a1a;fill-opacity:1;fill-rule:nonzero;stroke:none"
             id="path4565"
             inkscape:connector-curvature="0" /></g><g
           id="g4567"
           transform="translate(421.662,407.6565)"><path
             d="M 0,0 V 63.86 H -111.531 Z"
             style="fill:#59d771;fill-opacity:1;fill-rule:nonzero;stroke:none"
             id="path4569"
             inkscape:connector-curvature="0" /></g><g
           id="g4571"
           transform="translate(339.8295,309.9787)"><path
             d="M 0,0 -239.27,-138.917 197.864,0.306 -339.83,308.177 Z"
             style="fill:#59d771;fill-opacity:1;fill-rule:nonzero;stroke:none"
             id="path4573"
             inkscape:connector-curvature="0" /></g></g></g></g></svg>